<svg xmlns="http://www.w3.org/2000/svg" xmlns:svg="http://www.w3.org/2000/svg" id="svg37" width="16" height="16" version="1.1" viewBox="0 0 16 16"><defs id="defs7"><linearGradient id="linearGradient3764" x1="1" x2="47" gradientTransform="rotate(-90,23.999998,24)" gradientUnits="userSpaceOnUse"><stop style="stop-color:#333;stop-opacity:1" id="stop2"/><stop offset="1" style="stop-color:#3d3d3d;stop-opacity:1" id="stop4"/></linearGradient></defs><g id="g35" transform="matrix(1.1962617,0,0,-1.1962617,-13.475664,44.261683)" style="fill:#4d4d4d"><path d="m 12.679637,35.321264 c 0,0 -0.0011,1.680955 1.671875,1.678059 0,0 5.525835,0.0015 7.106416,3.5e-5 0,0 1.672087,0.0012 1.671875,-1.671875 -3.98e-4,-3.12946 -1.47e-4,-8.135754 -1.47e-4,-8.135754 l -3.620585,-3.564096 -3.897885,-5.88e-4 c 0,0 0.0074,-0.0063 -1.259674,3.92e-4 -1.669999,-0.002 -1.671875,1.676896 -1.671875,1.676896 m 1.045901,-0.648101 h 1.044901 4.179609 v 3.085798 h 3.134706 v 8.228793 h -3.134706 -4.179609 -1.044901 z" style="opacity:1;fill:#bfbfbf;fill-opacity:1;stroke:none;stroke-width:1.03685" id="path31"/><path d="m 19.225214,23.627659 v 0.99976 2.999279 h 2.999944 0.999981 v -0.534871 l -3.464935,-3.464168 z" style="opacity:1;fill:#4d4d4d;fill-opacity:0;stroke:none;stroke-width:.999999" id="path33"/><rect width="5.859" height=".836" x="14.976" y="-34.5" style="fill:#bfbfbf;fill-opacity:1;stroke:none;stroke-width:.78245" id="rect14" transform="scale(1,-1)"/><rect width="5.847" height=".836" x="14.981" y="-31.981" style="fill:#bfbfbf;fill-opacity:1;stroke:none;stroke-width:.781645" id="rect14-3" transform="scale(1,-1)"/><rect width="5.839" height=".836" x="14.989" y="-29.48" style="fill:#bfbfbf;fill-opacity:1;stroke:none;stroke-width:.781095" id="rect14-6" transform="scale(1,-1)"/><rect width="2.754" height=".836" x="14.991" y="-26.97" style="fill:#bfbfbf;fill-opacity:1;stroke:none;stroke-width:.536405" id="rect14-3-5" transform="scale(1,-1)"/></g></svg>