<svg xmlns="http://www.w3.org/2000/svg" xmlns:svg="http://www.w3.org/2000/svg" xmlns:xlink="http://www.w3.org/1999/xlink" id="svg83" width="96" height="96" version="1.1"><defs id="defs49"><linearGradient id="a" stop-color="#fff"><stop id="stop2" offset="0"/><stop id="stop4" offset="1" stop-opacity="0"/></linearGradient><filter id="j" width="1.392" height="1.392" x="-.196" y="-.196" color-interpolation-filters="sRGB"><feGaussianBlur id="feGaussianBlur7" stdDeviation="5.28"/></filter><linearGradient id="t" x1="48" x2="48" y1="20.221" y2="138.66" gradientUnits="userSpaceOnUse" xlink:href="#a"/><clipPath id="g"><rect id="rect11" width="84" height="84" x="6" y="6" fill="#fff" rx="6" ry="6"/></clipPath><linearGradient id="e" x1="58.65" x2="58.65" y1="122" y2="5.425" gradientTransform="matrix(1.0172,0,0,1.0172,-1.1034,-1.1034)" gradientUnits="userSpaceOnUse"><stop id="stop14" offset="0" stop-color="#e4b31e"/><stop id="stop16" offset="1" stop-color="#ffef64"/></linearGradient><clipPath id="i"><path id="path19" fill="url(#u)" d="m62 6c-3.324 0-6 2.676-6 6v0.53125c0-3.6103 2.921-6.531 6.531-6.531h-0.531zm71.469 0c3.61 0 6.53 2.9207 6.53 6.531v-0.531c0-3.324-2.676-6-6-6h-0.53125zm6.53 6.531c0 36.735-3.5426 60.105-7.8438 69.938-10.82 5.031-35.685 7.531-69.634 7.531h71.469c3.324 0 6-2.676 6-6v-71.469zm-77.47 77.469c-3.61-0.006-6.531-2.921-6.531-6.531v0.531c0 3.324 2.676 6 6 6h0.53125z"/></clipPath><linearGradient id="u" x1="48" x2="48" y1="90" y2="5.988" gradientTransform="translate(50)" gradientUnits="userSpaceOnUse" xlink:href="#e"/><filter id="l" width="1.072" height="1.072" x="-.036" y="-.036" color-interpolation-filters="sRGB"><feGaussianBlur id="feGaussianBlur23" stdDeviation="1.26"/></filter><linearGradient id="d" x1="45.448" x2="45.448" y1="92.54" y2="7.016" gradientTransform="matrix(1.0059 0 0 .99417 100 0)" gradientUnits="userSpaceOnUse"><stop id="stop26" offset="0"/><stop id="stop28" offset="1" stop-opacity=".588"/></linearGradient><linearGradient id="s" x1="36.357" x2="36.357" y1="6" y2="63.893" gradientUnits="userSpaceOnUse" xlink:href="#a"/><linearGradient id="r" x1="82.08" x2="59.612" y1="82.29" y2="59.821" gradientUnits="userSpaceOnUse" xlink:href="#a"/><linearGradient id="q" x1="59.388" x2="110.99" y1="44.471" y2="112.41" gradientTransform="matrix(0.71186,0,0,0.71186,154.76361,-56.984968)" gradientUnits="userSpaceOnUse"><stop id="stop33" offset="0" stop-color="#e7ba26" stop-opacity="0"/><stop id="stop35" offset=".484" stop-color="#e9ab2c" stop-opacity=".831"/><stop id="stop37" offset=".697" stop-color="#eaa82e"/><stop id="stop39" offset=".843" stop-color="#ebba3f"/><stop id="stop41" offset="1" stop-color="#f3e38c"/></linearGradient><radialGradient id="h" cx="48" cy="90.172" r="42" gradientTransform="matrix(1.1573 0 0 .99591 -7.551 .19713)" gradientUnits="userSpaceOnUse" xlink:href="#a"/><linearGradient id="p" x1="48" x2="48" y1="90" y2="6" gradientUnits="userSpaceOnUse" xlink:href="#e"/><linearGradient id="o" x1="32.251" x2="32.251" y1="90" y2="6" gradientTransform="translate(0,1)" gradientUnits="userSpaceOnUse" xlink:href="#d"/><linearGradient id="n" x1="32.251" x2="32.251" y1="90" y2="6" gradientTransform="matrix(1.0238 0 0 1.0119 -1.1429 .929)" gradientUnits="userSpaceOnUse" xlink:href="#d"/><linearGradient id="m" x1="32.251" x2="32.251" y1="6.132" y2="90.239" gradientTransform="matrix(1.0238,0,0,-1.0119,-1.1429,98.071)" gradientUnits="userSpaceOnUse" xlink:href="#d"/><linearGradient id="linearGradient3593" x1="61.295" x2="117.361" y1="121.328" y2="18.868" gradientUnits="userSpaceOnUse" xlink:href="#a"/><filter id="filter3963" width="1.065" height="1.04" x="-.032" y="-.02" color-interpolation-filters="sRGB"><feGaussianBlur id="feGaussianBlur3965" stdDeviation=".916"/></filter><linearGradient id="linearGradient3595" x1="61.295" x2="104.63" y1="121.328" y2="41.347" gradientUnits="userSpaceOnUse" xlink:href="#a"/><filter id="filter181" width="1.065" height="1.04" x="-.032" y="-.02" color-interpolation-filters="sRGB"><feGaussianBlur id="feGaussianBlur179" stdDeviation=".916"/></filter><linearGradient id="linearGradient3522" x1="136.414" x2="149.53" y1="115.494" y2="115.494" gradientUnits="userSpaceOnUse" xlink:href="#linearGradient3485"/><linearGradient id="linearGradient3485"><stop id="stop3487" style="stop-color:#e6605b;stop-opacity:1" offset="0"/><stop id="stop3489" style="stop-color:#f08682;stop-opacity:1" offset="1"/></linearGradient><filter id="filter3495" width="1.857" height="1.333" x="-.429" y="-.166" color-interpolation-filters="sRGB"><feGaussianBlur id="feGaussianBlur3497" stdDeviation=".552"/></filter><filter id="filter3509" width="1.367" height="1.353" x="-.183" y="-.177" color-interpolation-filters="sRGB"><feGaussianBlur id="feGaussianBlur3511" stdDeviation=".659"/></filter><linearGradient id="linearGradient3524" x1="137.406" x2="148.531" y1="116.469" y2="116.469" gradientTransform="matrix(1.0893815,0,0,1,-13.275943,0)" gradientUnits="userSpaceOnUse" xlink:href="#linearGradient3339"/><linearGradient id="linearGradient3339"><stop id="stop3341" style="stop-color:#000;stop-opacity:1" offset="0"/><stop id="stop3347" style="stop-color:#000;stop-opacity:.49803922" offset=".7"/><stop id="stop3343" style="stop-color:#000;stop-opacity:0" offset="1"/></linearGradient><linearGradient id="linearGradient3526" x1="136" x2="150" y1="60" y2="60" gradientTransform="translate(-23.73343)" gradientUnits="userSpaceOnUse" xlink:href="#linearGradient3278"/><linearGradient id="linearGradient3278"><stop id="stop3280" style="stop-color:#945a00;stop-opacity:1" offset="0"/><stop id="stop3290" style="stop-color:#e28e0a;stop-opacity:1" offset=".25"/><stop id="stop3286" style="stop-color:#ffba14;stop-opacity:1" offset=".3"/><stop id="stop3288" style="stop-color:#f3ac00;stop-opacity:1" offset=".7"/><stop id="stop3292" style="stop-color:#ffd314;stop-opacity:1" offset=".75"/><stop id="stop3282" style="stop-color:#ffed94;stop-opacity:1" offset="1"/></linearGradient><linearGradient id="linearGradient3528" x1="143" x2="143" y1="0" y2="120.018" gradientTransform="translate(-23.73343)" gradientUnits="userSpaceOnUse" xlink:href="#linearGradient3254"/><linearGradient id="linearGradient3254"><stop id="stop3256" style="stop-color:#000;stop-opacity:1" offset="0"/><stop id="stop3266" style="stop-color:#000;stop-opacity:1" offset=".066"/><stop id="stop3264" style="stop-color:#ad5f1b;stop-opacity:1" offset=".07"/><stop id="stop3268" style="stop-color:#ad601a;stop-opacity:1" offset=".191"/><stop id="stop3262" style="stop-color:#785800;stop-opacity:1" offset=".21"/><stop id="stop3258" style="stop-color:#785700;stop-opacity:1" offset="1"/></linearGradient><linearGradient id="linearGradient3530" x1="141.25" x2="144.813" y1="4.922" y2="4.922" gradientTransform="translate(-23.73343)" gradientUnits="userSpaceOnUse" xlink:href="#linearGradient3394"/><linearGradient id="linearGradient3394"><stop id="stop3396" style="stop-color:#000;stop-opacity:1" offset="0"/><stop id="stop3402" style="stop-color:#7d7d7d;stop-opacity:1" offset=".5"/><stop id="stop3398" style="stop-color:#000;stop-opacity:1" offset="1"/></linearGradient><linearGradient id="linearGradient3532" x1="136.988" x2="148.995" y1="17.043" y2="17.043" gradientTransform="translate(-23.73343)" gradientUnits="userSpaceOnUse" xlink:href="#linearGradient3308"/><linearGradient id="linearGradient3308"><stop id="stop3310" style="stop-color:#da8539;stop-opacity:1" offset="0"/><stop id="stop3312" style="stop-color:#fadfc7;stop-opacity:1" offset="1"/></linearGradient><linearGradient id="linearGradient3534" x1="146.106" x2="146.076" y1="118.94" y2="66" gradientTransform="matrix(1,0,0,1.2653524,-23.73343,-54.364173)" gradientUnits="userSpaceOnUse" xlink:href="#linearGradient5452"/><linearGradient id="linearGradient5452"><stop id="stop5454" style="stop-color:#fff;stop-opacity:1" offset="0"/><stop id="stop5456" style="stop-color:#fff;stop-opacity:0" offset="1"/></linearGradient><linearGradient id="linearGradient3536" x1="146.106" x2="146.076" y1="118.94" y2="66" gradientTransform="matrix(1,0,0,1.2653524,-29.85843,-54.364173)" gradientUnits="userSpaceOnUse" xlink:href="#linearGradient5452"/><filter id="filter3382" width="1.743" height="1.198" x="-.372" y="-.099" color-interpolation-filters="sRGB"><feGaussianBlur id="feGaussianBlur3384" stdDeviation=".739"/></filter><filter id="filter3390" width="2.22" height="1.299" x="-.61" y="-.149" color-interpolation-filters="sRGB"><feGaussianBlur id="feGaussianBlur3392" stdDeviation=".778"/></filter><linearGradient id="linearGradient3538" x1="136" x2="150" y1="106" y2="106" gradientUnits="userSpaceOnUse" xlink:href="#linearGradient3401"/><linearGradient id="linearGradient3401"><stop id="stop3403" style="stop-color:#404040;stop-opacity:1" offset="0"/><stop id="stop3447" style="stop-color:gray;stop-opacity:1" offset=".2"/><stop id="stop3410" style="stop-color:#efefef;stop-opacity:1" offset=".7"/><stop id="stop3405" style="stop-color:#dcdcdc;stop-opacity:1" offset="1"/></linearGradient><linearGradient id="linearGradient3540" x1="136" x2="150" y1="106" y2="106" gradientUnits="userSpaceOnUse" xlink:href="#linearGradient3461"/><linearGradient id="linearGradient3461"><stop id="stop3463" style="stop-color:#444542;stop-opacity:1" offset="0"/><stop id="stop3465" style="stop-color:#71746e;stop-opacity:1" offset="1"/></linearGradient><linearGradient id="linearGradient3542" x1="142.958" x2="148.958" y1="98.951" y2="98.951" gradientTransform="translate(0.04225159,1.5494389)" gradientUnits="userSpaceOnUse" spreadMethod="reflect" xlink:href="#linearGradient3339"/><linearGradient id="linearGradient3544" x1="142.958" x2="148.958" y1="98.951" y2="98.951" gradientTransform="translate(0.04225159,2.5494389)" gradientUnits="userSpaceOnUse" spreadMethod="reflect" xlink:href="#linearGradient3355"/><linearGradient id="linearGradient3355"><stop id="stop3357" style="stop-color:#fff;stop-opacity:1" offset="0"/><stop id="stop3359" style="stop-color:#fff;stop-opacity:.49803922" offset=".7"/><stop id="stop3361" style="stop-color:#fff;stop-opacity:0" offset="1"/></linearGradient><linearGradient id="linearGradient3546" x1="142.958" x2="148.958" y1="98.951" y2="98.951" gradientTransform="translate(0.04225159,3.5494389)" gradientUnits="userSpaceOnUse" spreadMethod="reflect" xlink:href="#linearGradient3339"/><linearGradient id="linearGradient3548" x1="142.958" x2="148.958" y1="98.951" y2="98.951" gradientTransform="translate(0.04225159,4.5494389)" gradientUnits="userSpaceOnUse" spreadMethod="reflect" xlink:href="#linearGradient3355"/><linearGradient id="linearGradient3550" x1="142.958" x2="148.958" y1="98.951" y2="98.951" gradientTransform="translate(0.04225159,9.5494389)" gradientUnits="userSpaceOnUse" spreadMethod="reflect" xlink:href="#linearGradient3339"/><linearGradient id="linearGradient3552" x1="142.958" x2="148.958" y1="98.951" y2="98.951" gradientTransform="translate(0.04225159,10.549439)" gradientUnits="userSpaceOnUse" spreadMethod="reflect" xlink:href="#linearGradient3355"/><linearGradient id="linearGradient3554" x1="142.958" x2="148.958" y1="98.951" y2="98.951" gradientTransform="translate(0.04225159,11.549439)" gradientUnits="userSpaceOnUse" spreadMethod="reflect" xlink:href="#linearGradient3339"/><linearGradient id="linearGradient3556" x1="142.958" x2="148.958" y1="98.951" y2="98.951" gradientTransform="translate(0.04225159,12.549439)" gradientUnits="userSpaceOnUse" spreadMethod="reflect" xlink:href="#linearGradient3355"/><linearGradient id="linearGradient3558" x1="137" x2="139.031" y1="106" y2="106" gradientUnits="userSpaceOnUse" spreadMethod="repeat" xlink:href="#linearGradient3439"/><linearGradient id="linearGradient3439"><stop id="stop3441" style="stop-color:#3d3d3d;stop-opacity:1" offset="0"/><stop id="stop3443" style="stop-color:#fff;stop-opacity:1" offset="1"/></linearGradient><filter id="filter3451" width="3.07" height="1.271" x="-1.035" y="-.136" color-interpolation-filters="sRGB"><feGaussianBlur id="feGaussianBlur3453" stdDeviation=".95"/></filter><filter id="filter3457" width="2.867" height="1.275" x="-.933" y="-.138" color-interpolation-filters="sRGB"><feGaussianBlur id="feGaussianBlur3459" stdDeviation=".928"/></filter></defs><g id="g57" fill="url(#m)"><path id="path51" d="m12 95.031c-5.5111 0-10.031-4.52-10.031-10.031v-71c0-5.5111 4.5202-10.031 10.031-10.031h72c5.5111 0 10.031 4.5202 10.031 10.031v71c0 5.5111-4.5202 10.031-10.031 10.031h-72z" opacity=".08"/><path id="path53" d="m12 94.031c-4.9716 0-9.0312-4.0596-9.0312-9.0312v-71c0-4.9718 4.0596-9.0314 9.0312-9.0314h72c4.9716 0 9.0312 4.0596 9.0312 9.0312v71c0 4.9716-4.0596 9.0312-9.0312 9.0312h-72z" opacity=".1"/><path id="path55" d="m12 93c-4.4091 0-8-3.591-8-8v-71c0-4.4091 3.5909-8 8-8h72c4.4091 0 8 3.5909 8 8v71c0 4.4091-3.5909 8-8 8h-72z" opacity=".2"/></g><rect id="rect59" width="86" height="85" x="5" y="7" fill="url(#n)" opacity=".3" rx="7" ry="7"/><rect id="rect61" width="84" height="84" x="6" y="7" fill="url(#o)" opacity=".45" rx="6" ry="6"/><rect id="rect63" width="84" height="84" x="6" y="6" fill="url(#p)" rx="6" ry="6" style="fill:#f9f06b"/><path id="path65" fill="url(#h)" d="m12 90c-3.324 0-6-2.676-6-6v-72c0-0.33472 0.04135-0.6507 0.09375-0.96875 0.0487-0.2956 0.09704-0.59692 0.1875-0.875 0.0099-0.03 0.0209-0.063 0.0313-0.094 0.0989-0.2873 0.2349-0.547 0.375-0.812 0.1446-0.2735 0.3156-0.5356 0.5-0.7812 0.1844-0.2457 0.3738-0.4735 0.5937-0.6876 0.44-0.428 0.943-0.8145 1.5-1.0937 0.2786-0.1396 0.5735-0.2469 0.8748-0.3437-0.256 0.1002-0.4865 0.2362-0.7185 0.375-0.00741 0.0044-0.023866-0.0045-0.03125 0-0.031933 0.0193-0.062293 0.04251-0.09375 0.0625-0.1204 0.0767-0.23102 0.16351-0.34375 0.25-0.10617 0.0808-0.21328 0.16111-0.3125 0.25-0.1779 0.1614-0.3474 0.3453-0.5 0.5312-0.1075 0.1303-0.2183 0.2653-0.3124 0.4063-0.0251 0.0383-0.0385 0.0858-0.0626 0.125-0.0647 0.103-0.1302 0.2045-0.1874 0.3124-0.1011 0.1948-0.2057 0.4158-0.2813 0.625-0.008 0.0219-0.0236 0.0406-0.0313 0.0626-0.0318 0.0919-0.0358 0.1868-0.0624 0.2812-0.0304 0.1066-0.0704 0.203-0.0938 0.3125-0.0729 0.3415-0.125 0.6985-0.125 1.0625v72c0 2.7818 2.2182 5 5 5h72c2.7818 0 5-2.2182 5-5v-72c0-0.364-0.052-0.721-0.125-1.0625-0.044-0.2069-0.088-0.3977-0.156-0.5937-0.008-0.022-0.024-0.0407-0.031-0.0626-0.063-0.1737-0.139-0.3674-0.219-0.5312-0.042-0.0828-0.079-0.17-0.125-0.25-0.055-0.0972-0.127-0.1884-0.188-0.2812-0.094-0.141-0.205-0.276-0.312-0.4063-0.143-0.1745-0.303-0.347-0.469-0.5-0.011-0.0102-0.02-0.0211-0.031-0.0313-0.139-0.1255-0.285-0.2344-0.438-0.3437-0.102-0.0731-0.204-0.1534-0.312-0.2187-0.0074-0.0045-0.02384 0.0044-0.03125 0-0.23204-0.13873-0.46255-0.27478-0.71875-0.375 0.30153 0.0968 0.59646 0.20414 0.875 0.34375 0.55709 0.27922 1.0601 0.66569 1.5 1.0938 0.21997 0.21403 0.40937 0.44186 0.59375 0.6875s0.35541 0.50774 0.5 0.78125c0.14012 0.26505 0.27614 0.52473 0.375 0.8125 0.01041 0.03078 0.02133 0.06274 0.03125 0.09375 0.09046 0.27808 0.1388 0.5794 0.1875 0.875 0.053 0.318 0.094 0.634 0.094 0.969v72c0 3.324-2.676 6-6 6h-72z" opacity=".2"/><path id="path67" fill="#a14b09" d="m62.517 6c-3.61 0-6.517 2.9067-6.517 6.517v70.966c0 3.6105 2.9067 6.5117 6.5172 6.5172 33.948 0 61.157 0.16315 73.402-3.7963 3.23-10.012 4.08-36.952 4.08-73.687 0-3.6103-2.91-6.517-6.52-6.517h-70.963z" clip-path="url(#i)" filter="url(#l)" opacity=".5" transform="translate(-50)"/><path id="path69" fill="#fff" d="m12 6c-3.324 0-6 2.676-6 6v6h84v-6c0-3.324-2.676-6-6-6h-72z" opacity=".35" style="fill:#e66100"/><path id="path75" fill="url(#r)" d="m87.562 7.4375c0.896 1.1156 1.438 2.5457 1.438 4.0935 0 36.735-3.543 60.105-7.844 69.938-10.816 5.031-35.676 7.531-69.625 7.531-1.5478-0.002-2.9779-0.543-4.0935-1.438 1.1925 1.486 3.0315 2.435 5.0935 2.438 33.949 0 58.809-2.5 69.625-7.531 4.301-9.833 7.844-33.203 7.844-69.938 0-2.062-0.951-3.901-2.438-5.0935z" opacity=".3"/><path id="path77" fill="#520" d="m89.969 19.281c-0.40529 32.853-3.7815 53.972-7.8125 63.188-10.14 4.7164-32.629 7.2052-63.375 7.5 30.865-0.09992 54.681-1.0063 64.812-5.7188 4.0323-9.2182 6.1284-31.901 6.375-64.969z" opacity=".2"/><path id="path79" fill="url(#s)" d="m12 6c-3.324 0-6 2.676-6 6v72c0 0.33472 0.04135 0.6507 0.09375 0.96875 0.0487 0.2956 0.09704 0.59692 0.1875 0.875 0.00988 0.03038 0.020892 0.0636 0.03125 0.09375 0.098865 0.28777 0.23488 0.54745 0.375 0.8125 0.14459 0.27351 0.31562 0.53562 0.5 0.78125 0.18438 0.24564 0.37378 0.47347 0.59375 0.6875 0.43995 0.42806 0.94291 0.81453 1.5 1.0938 0.27854 0.13961 0.57347 0.24695 0.875 0.34375-0.2562-0.10022-0.48671-0.23627-0.71875-0.375-0.00741-0.0044-0.023866 0.0045-0.03125 0-0.0319-0.019-0.0622-0.042-0.0937-0.062-0.1204-0.077-0.231-0.164-0.3437-0.25-0.1062-0.081-0.2133-0.161-0.3126-0.25-0.1778-0.162-0.3473-0.346-0.4999-0.531-0.1075-0.131-0.2183-0.266-0.3124-0.407-0.0251-0.038-0.0385-0.086-0.0626-0.125-0.0647-0.103-0.1302-0.204-0.1874-0.312-0.1011-0.195-0.2057-0.416-0.2813-0.625-0.008-0.022-0.0236-0.041-0.0313-0.063-0.0318-0.092-0.0358-0.187-0.0624-0.281-0.0304-0.107-0.0704-0.203-0.0938-0.313-0.0729-0.341-0.125-0.698-0.125-1.062v-72c0-2.782 2.2182-5 5-5h72c2.7818 0 5 2.2182 5 5v72c0 0.3643-0.05212 0.72099-0.125 1.0625-0.04415 0.20689-0.08838 0.39766-0.15625 0.59375-0.0077 0.02195-0.0233 0.04069-0.03125 0.0625-0.06274 0.17374-0.13838 0.36745-0.21875 0.53125-0.04158 0.0828-0.07904 0.16995-0.125 0.25-0.0546 0.09721-0.12677 0.18835-0.1875 0.28125-0.09411 0.14096-0.20492 0.276-0.3125 0.40625-0.14317 0.17445-0.30314 0.347-0.46875 0.5-0.01117 0.0102-0.01998 0.02115-0.03125 0.03125-0.13839 0.12556-0.28509 0.23444-0.4375 0.34375-0.10257 0.07315-0.20432 0.15336-0.3125 0.21875-0.0074 0.0045-0.02384-0.0044-0.03125 0-0.23204 0.13873-0.46255 0.27478-0.71875 0.375 0.30153-0.0968 0.59646-0.20414 0.875-0.34375 0.55709-0.27922 1.0601-0.66569 1.5-1.0938 0.21997-0.21403 0.40937-0.44186 0.59375-0.6875s0.35541-0.50774 0.5-0.78125c0.14012-0.26505 0.27614-0.52473 0.375-0.8125 0.01041-0.03078 0.02133-0.06274 0.03125-0.09375 0.09046-0.27808 0.1388-0.5794 0.1875-0.875 0.053-0.318 0.094-0.634 0.094-0.969v-72c0-3.324-2.676-6-6-6h-72z" opacity=".6"/><text xml:space="preserve" style="font-style:normal;font-weight:400;font-size:10.6667px;line-height:1.25;font-family:sans-serif;fill:#000;fill-opacity:1;stroke:none" id="text6480" x="10.244" y="34.772"><tspan id="tspan6478" x="10.244" y="34.772" style="font-style:normal;font-variant:normal;font-weight:400;font-stretch:normal;font-size:10.6667px;font-family:Purisa;-inkscape-font-specification:Purisa;fill:#3d3846">Lorem<tspan style="font-size:5.33333px" id="tspan2910"> </tspan>Ipsum</tspan></text><g id="layer3" style="display:inline" transform="translate(-137.61678,3.8208344)"><path id="path3589" d="m 118.375,11.03125 c -0.52336,-0.06895 -1.05794,-0.0102 -1.5625,0.125 -1.00643,0.269671 -1.88554,0.918974 -2.4375,1.875 l -2.0625,3.5625 a 1.0491519,1.0491519 0 0 0 -0.84375,0.53125 l -9.5,16.46875 -36,62.34375 a 1.0491519,1.0491519 0 0 0 -0.09375,0.25 L 59.5,120.21875 A 1.0491519,1.0491519 0 0 0 61.25,121.25 L 78.875,103.71875 A 1.0491519,1.0491519 0 0 0 79.03125,103.5 l 36,-62.34375 9.5,-16.46875 a 1.0491519,1.0491519 0 0 0 0.0625,-0.90625 l 2.09375,-3.625 c 1.11127,-1.924777 0.4576,-4.419069 -1.46875,-5.53125 l -5.3125,-3.0625 c -0.47927,-0.276705 -1.00789,-0.462302 -1.53125,-0.53125 z" transform="matrix(-0.1253856,0.7141758,-0.7141758,-0.1253856,245.2551,16.205935)" style="display:inline;opacity:.3;fill:url(#linearGradient3593);fill-opacity:1;stroke:none;filter:url(#filter3963)"/><g id="g3643" transform="matrix(0.3625495,-0.6279542,0.6279542,0.3625495,98.601098,128.53511)" style="display:inline"><g id="g3537"><rect id="rect3483" width="12.116" height="16" x="136.914" y="107.494" rx="3" ry="3" style="fill:url(#linearGradient3522);fill-opacity:1;stroke:#df453f;stroke-width:1.37912;stroke-linecap:butt;stroke-linejoin:round;stroke-miterlimit:4;stroke-dasharray:none;stroke-opacity:1"/><path id="path3493" d="m 141.24458,118.1889 a 1.5467962,3.9774759 0 1 1 -3.09359,0 1.5467962,3.9774759 0 1 1 3.09359,0 z" transform="matrix(1.8857143,0,0,1,-123.51329,-1.9445437)" style="opacity:.3;fill:#701300;fill-opacity:1;stroke:none;filter:url(#filter3495)"/><path id="path3499" d="m 146.31251,113.125 c -0.85193,9.50672 -3.9375,8.3125 -6.5,8.9375 4.07634,0.0625 8.625,-0.0625 8.625,-0.0625 -2.4375,-0.5625 -1.8125,-2.375 -2.125,-8.875 z" style="opacity:.8;fill:#fff;fill-opacity:1;fill-rule:evenodd;stroke:none;filter:url(#filter3509)"/><rect id="rect3525" width="12.119" height="1" x="136.412" y="115.969" style="opacity:.2;fill:url(#linearGradient3524);fill-opacity:1;stroke:none"/></g><g id="g3311" transform="translate(23.73343)"><path id="rect2480" d="m 112.76657,24.500002 6.5,-23.9999996 6.5,23.9999996 v 71.999997 h -13 z" style="fill:url(#linearGradient3526);fill-opacity:1;stroke:url(#linearGradient3528);stroke-width:1.37912;stroke-linecap:butt;stroke-linejoin:round;stroke-miterlimit:4;stroke-opacity:1"/><path id="path3272" d="m 117.69336,8.0716529 3.14265,0.022097 -1.58237,-5.7913293" style="fill:url(#linearGradient3530);fill-opacity:1;fill-rule:evenodd;stroke:none"/><path id="path3274" d="M 117.73213,8.0901517 113.96457,22 c 0,0 -0.46779,1.653465 -0.698,2.60832 -0.19122,0.64228 1.95886,1.611283 3.0182,-1.60832 1.21534,4.513809 5.57589,3.437953 5.98831,0.01105 0.3425,1.701476 1.75396,2.949961 2.98863,1.521937 -0.23478,-0.908743 -0.43641,-1.521937 -0.43641,-1.521937 L 120.80362,8.0901527 h -3.07149 z" style="fill:url(#linearGradient3532);fill-opacity:1;fill-rule:evenodd;stroke:none"/><path id="path3294" d="M 122.37252,96.304856 V 29.087562" style="opacity:.5;fill:none;stroke:url(#linearGradient3534);stroke-width:1.37912px;stroke-linecap:butt;stroke-linejoin:miter;stroke-opacity:1"/><path id="path3304" d="M 116.24752,96.304856 V 29.087562" style="opacity:.5;fill:none;stroke:url(#linearGradient3536);stroke-width:1.37912px;stroke-linecap:butt;stroke-linejoin:miter;stroke-opacity:1"/><path id="path3372" d="m 118.7044,5.9798798 -4.77297,17.8986412 1.98873,-0.839689 z" style="opacity:.4;fill:#ac4311;fill-opacity:1;fill-rule:evenodd;stroke:none;filter:url(#filter3382)"/><path id="path3386" d="m 113.07908,24.624995 c 0,0 1.48667,1.76491 3.25,-1.53125 2,5.25 5.16858,2.087146 5.93749,-0.03125 1.375,3.4375 3.12501,1.4375 3.12501,1.4375" style="opacity:.15;fill:none;stroke:#4d2600;stroke-width:1.37912px;stroke-linecap:butt;stroke-linejoin:miter;stroke-opacity:1"/><path id="path3388" d="m 144.06251,8.9374939 -0.375,12.5000011 3.0625,-0.3125 z" transform="matrix(1.122449,0,0,1.345,-41.70282,-4.7709353)" style="opacity:.8;fill:#fff;fill-opacity:1;fill-rule:evenodd;stroke:none;filter:url(#filter3390)"/></g><g id="g3620"><rect id="rect3333" width="13" height="19" x="136.5" y="96.5" style="fill:url(#linearGradient3538);fill-opacity:1;stroke:url(#linearGradient3540);stroke-width:1.37912;stroke-linecap:butt;stroke-linejoin:round;stroke-miterlimit:4;stroke-dasharray:none;stroke-opacity:1"/><rect id="rect3337" width="12" height="1" x="137" y="100" style="opacity:.4;fill:url(#linearGradient3542);fill-opacity:1;stroke:none"/><rect id="rect3351" width="12" height="1" x="137" y="101" style="opacity:.6;fill:url(#linearGradient3544);fill-opacity:1;stroke:none"/><rect id="rect3369" width="12" height="1" x="137" y="102" style="opacity:.4;fill:url(#linearGradient3546);fill-opacity:1;stroke:none"/><rect id="rect3371" width="12" height="1" x="137" y="103" style="opacity:.6;fill:url(#linearGradient3548);fill-opacity:1;stroke:none"/><rect id="rect3379" width="12" height="1" x="137" y="108" style="opacity:.4;fill:url(#linearGradient3550);fill-opacity:1;stroke:none"/><rect id="rect3381" width="12" height="1" x="137" y="109" style="opacity:.6;fill:url(#linearGradient3552);fill-opacity:1;stroke:none"/><rect id="rect3385" width="12" height="1" x="137" y="110" style="opacity:.4;fill:url(#linearGradient3554);fill-opacity:1;stroke:none"/><rect id="rect3387" width="12" height="1" x="137" y="111" style="opacity:.6;fill:url(#linearGradient3556);fill-opacity:1;stroke:none"/><rect id="rect3437" width="12" height="4" x="137" y="104" style="opacity:.3;fill:url(#linearGradient3558);fill-opacity:1;stroke:none"/><path id="path3449" d="m 140.00001,106.07969 a 1.10128,8.3968973 0 1 1 -2.20256,0 1.10128,8.3968973 0 1 1 2.20256,0 z" transform="matrix(1.2553848,0,0,1,-35.75387,0)" style="opacity:.6;fill:#000;fill-opacity:1;stroke:none;filter:url(#filter3451)"/><path id="path3455" d="m 147.34339,106.03549 a 1.193245,8.0875489 0 1 1 -2.38649,0 1.193245,8.0875489 0 1 1 2.38649,0 z" style="opacity:.8;fill:#fff;fill-opacity:1;stroke:none;filter:url(#filter3457)"/></g></g></g></svg>